<?xml version="1.0" standalone="no"?>
<!DOCTYPE svg PUBLIC "-//W3C//DTD SVG 20010904//EN"
 "http://www.w3.org/TR/2001/REC-SVG-20010904/DTD/svg10.dtd">
<svg version="1.0" xmlns="http://www.w3.org/2000/svg"
 width="308.000000pt" height="293.000000pt" viewBox="0 0 308.000000 293.000000"
 preserveAspectRatio="xMidYMid meet">
<metadata>
Created by potrace 1.16, written by Peter Selinger 2001-2019
</metadata>
<g transform="translate(0.000000,293.000000) scale(0.100000,-0.100000)"
fill="#000000" stroke="none">
<path d="M1327 2919 c-78 -18 -121 -70 -119 -145 1 -95 54 -139 167 -137 39 1
138 2 220 3 110 2 170 -1 226 -14 244 -53 441 -159 609 -326 168 -168 274
-367 326 -610 23 -111 24 -333 0 -441 -105 -484 -450 -829 -935 -935 -106 -24
-329 -24 -439 0 -423 90 -749 375 -891 780 -48 136 -62 237 -60 426 2 139 0
170 -15 198 -23 45 -71 72 -126 72 -61 0 -102 -27 -131 -87 -23 -46 -24 -57
-23 -238 0 -156 4 -208 22 -292 130 -604 606 -1061 1207 -1158 120 -20 366
-19 486 1 295 49 569 192 790 413 171 172 282 349 354 564 61 183 70 248 70
487 -1 191 -3 226 -24 310 -74 299 -193 513 -400 721 -212 211 -471 352 -747
405 -85 16 -502 18 -567 3z"/>
<path d="M19 2769 c-15 -15 -19 -30 -17 -62 3 -48 -59 11 659 -614 222 -194
418 -372 435 -395 66 -90 81 -134 94 -272 7 -78 15 -111 39 -161 52 -106 108
-148 360 -274 129 -65 233 -111 250 -111 16 0 39 9 52 19 l24 19 0 384 c0 343
-2 388 -18 435 -24 69 -86 154 -144 196 -83 60 -1646 857 -1681 857 -19 0 -41
-9 -53 -21z"/>
</g>
</svg>
